<?xml version="1.0" encoding="utf-8"?>
<svg xmlns="http://www.w3.org/2000/svg" id="Layer_1" data-name="Layer 1" viewBox="0 0 96 96">
  <defs
     id="defs2998">
    <style
       id="style3000">.cls-1{fill:#047a53;}.cls-2{fill:#fff;}</style>
  </defs>
  <rect
     class="cls-1"
     y="-0.21004985"
     width="96.490051"
     height="96.490051"
     id="rect3020"
     x="0"
     style="fill:#008455" />
  <path
     d="m 85.824758,54.2904 7.986683,-2.262036 A 45.918727,45.869584 0 0 0 93.482577,41.009152 l -8.118226,-1.764575 a 36.766927,36.727578 0 0 0 -1.428208,-4.693023 l 5.778601,-5.941361 A 46.698602,46.648624 0 0 0 83.898559,19.22415 l -7.864534,2.56239 a 38.082382,38.041625 0 0 0 -3.579911,-3.378974 l 1.982575,-8.053224 A 45.834161,45.785108 0 0 0 64.702333,5.1450895 L 59.121052,11.274174 C 57.974727,10.92689 56.790819,10.626537 55.588118,10.33557 55.165294,10.2511 54.751865,10.185393 54.338439,10.11969 L 52.083373,2.1884866 A 45.899934,45.850811 0 0 0 41.052356,2.5169981 l -1.766465,8.1189249 a 36.729343,36.690034 0 0 0 -4.698049,1.417292 L 28.630717,6.2808006 a 46.040875,45.991601 0 0 0 -9.396099,5.8193454 l 2.527551,7.893659 A 37.950837,37.910221 0 0 0 18.38897,23.5605 l -8.024267,-2.017997 a 45.834161,45.785108 0 0 0 -5.2148338,9.723939 l 6.1356518,5.537763 c -0.347656,1.154484 -0.648331,2.32774 -0.892629,3.529152 -0.08456,0.422373 -0.150338,0.835358 -0.216111,1.248345 L 2.1900986,43.853123 A 45.928122,45.878968 0 0 0 2.518962,54.900494 l 8.118228,1.755189 a 38.298493,38.257505 0 0 0 1.418811,4.693019 l -5.769204,5.950752 a 46.040875,45.991601 0 0 0 5.82558,9.38604 L 20.0051,74.160649 a 36.804513,36.765124 0 0 0 3.579911,3.369589 l -2.048348,8.025066 a 45.730804,45.681862 0 0 0 9.724959,5.199865 l 5.600075,-6.082153 c 1.15572,0.347283 2.339629,0.647636 3.54233,0.938604 0.422823,0.09385 0.83625,0.150176 1.249679,0.225264 l 2.26446,7.978134 a 45.899934,45.850811 0 0 0 11.031018,-0.337897 l 1.766465,-8.109539 a 38.298493,38.257505 0 0 0 4.69805,-1.417292 l 5.94773,5.763029 a 46.435512,46.385815 0 0 0 9.396096,-5.809961 l -2.52755,-7.893659 a 39.247497,39.205493 0 0 0 3.373199,-3.576082 l 8.033664,1.914753 a 46.040875,45.991601 0 0 0 5.214834,-9.723939 l -6.135651,-5.565923 c 0.347655,-1.154482 0.64833,-2.337125 0.939609,-3.538536 0.03758,-0.394214 0.103357,-0.807199 0.169128,-1.229572 z m -7.310163,-0.187721 a 31.12927,31.095955 0 1 1 -24.354682,-36.60556 31.12927,31.095955 0 0 1 24.354682,36.60556 z"
     id="path3022"/>
  <path
     class="cls-2"
     d="M 68.930535,85 V 36.702204 L 48.100575,68.304742 H 47.687104 L 27.069465,37.015101 V 85 H 11 V 11.011173 H 28.555723 L 47.999999,42.300815 67.444276,11.011173 H 85 V 85 z"
     id="path3024"
     style="fill:#ffffff" />
</svg>
